<?xml version="1.0" standalone="no"?>
<!DOCTYPE svg PUBLIC "-//W3C//DTD SVG 20010904//EN"
 "http://www.w3.org/TR/2001/REC-SVG-20010904/DTD/svg10.dtd">
<svg version="1.0" xmlns="http://www.w3.org/2000/svg"
 width="1280.000000pt" height="1280.000000pt" viewBox="0 0 1280.000000 1280.000000"
 preserveAspectRatio="xMidYMid meet">
<metadata>
Created by potrace 1.15, written by Peter Selinger 2001-2017
</metadata>
<g transform="translate(0.000000,1280.000000) scale(0.100000,-0.100000)"
fill="#000000" stroke="none">
<path d="M3857 11953 c-4 -3 -7 -1340 -7 -2970 l0 -2963 -1400 0 c-770 0
-1400 -3 -1399 -7 0 -5 595 -418 1322 -919 727 -501 1925 -1327 2661 -1835
l1339 -924 -2702 -3 -2701 -2 0 -620 0 -620 5400 0 5400 0 0 620 0 620 -2661
2 -2661 3 958 661 c2970 2049 3559 2456 3942 2719 231 160 421 293 422 298 0
4 -630 7 -1400 7 l-1400 0 0 2970 0 2970 -2553 0 c-1405 0 -2557 -3 -2560 -7z"/>
</g>
</svg>
